<svg width="24" height="24" viewBox="0 0 24 24" fill="none" xmlns="http://www.w3.org/2000/svg">
<path d="M19.5 11.5312C19.5 14.8975 16.1426 17.625 12 17.625C10.9131 17.625 9.88183 17.4375 8.95019 17.1006C8.60156 17.3555 8.0332 17.7041 7.35937 17.9971C6.65625 18.3018 5.80957 18.5625 4.96875 18.5625C4.77832 18.5625 4.6084 18.4482 4.53516 18.2725C4.46191 18.0967 4.50293 17.8975 4.63476 17.7627L4.64355 17.7539C4.65234 17.7451 4.66406 17.7334 4.68164 17.7129C4.71387 17.6777 4.76367 17.6221 4.82519 17.5459C4.94531 17.3994 5.10644 17.1826 5.27051 16.9131C5.56348 16.4268 5.8418 15.7881 5.89746 15.0703C5.01855 14.0742 4.5 12.8525 4.5 11.5312C4.5 8.16504 7.85742 5.4375 12 5.4375C16.1426 5.4375 19.5 8.16504 19.5 11.5312Z" fill="currentColor"/>
</svg>
