<svg width="24" height="24" viewBox="0 0 24 24" fill="none" xmlns="http://www.w3.org/2000/svg">
<path d="M12.0817 17.2109L12 17.2927L11.9101 17.2109C8.02725 13.6878 5.46049 11.3581 5.46049 8.99567C5.46049 7.36079 6.68665 6.13463 8.32153 6.13463C9.58038 6.13463 10.8065 6.95207 11.2398 8.06379H12.7602C13.1935 6.95207 14.4196 6.13463 15.6785 6.13463C17.3134 6.13463 18.5395 7.36079 18.5395 8.99567C18.5395 11.3581 15.9728 13.6878 12.0817 17.2109ZM15.6785 4.49976C14.2561 4.49976 12.891 5.16188 12 6.20003C11.109 5.16188 9.74387 4.49976 8.32153 4.49976C5.80381 4.49976 3.82561 6.46978 3.82561 8.99567C3.82561 12.0774 6.6049 14.6033 10.8147 18.4207L12 19.4998L13.1853 18.4207C17.3951 14.6033 20.1744 12.0774 20.1744 8.99567C20.1744 6.46978 18.1962 4.49976 15.6785 4.49976Z" fill="currentColor"/>
</svg>
